This is the story of a shepherd in Bohemia during a war between Austria and Turkey. Wandering in the forest he finds a golden fern...

General
Unique ID : 180766178631306796062758265697999514044 (0x87FE4CB4EF5A609CAF2F2F9C1457E9BC)
Complete name : R:Zlate.kapradi.1963.720p.HDTV.x264-DON-english subbed.mkv
Format : Matroska
File size : 4.37 GiB
Duration : 1h 46mn
Overall bit rate : 5 890 Kbps
Movie name : Zlaté kapradí (1963)
Encoded date : UTC 2012-02-27 16:54:46
Writing application : mkvmerge v3.0.0 ('Hang up your Hang-Ups') built on Dec 12 2009 15:20:35
Writing library : libebml v0.7.9 + libmatroska v0.8.1

Video
ID : 2
Format : AVC
Format/Info : Advanced Video Codec
Format profile : High@L4.1
Format settings, CABAC : Yes
Format settings, ReFrames : 11 frames
Codec ID : V_MPEG4/ISO/AVC
Duration : 1h 46mn
Bit rate : 5 441 Kbps
Width : 1 280 pixels
Height : 544 pixels
Display aspect ratio : 2.35:1
Frame rate : 25.000 fps
Color space : YUV
Chroma subsampling : 4:2:0
Bit depth : 8 bits
Scan type : Progressive
Bits/(Pixel*Frame) : 0.313
Stream size : 3.95 GiB (90%)
Writing library : x264 core 120 r2120 0c7dab9
Encoding settings : cabac=1 / ref=11 / deblock=1:-3:-3 / analyse=0x3:0x133 / me=umh / subme=10 / psy=1 / psy_rd=1.15:0.15 / mixed_ref=1 / me_range=32 / chroma_me=1 / trellis=2 / 8x8dct=1 / cqm=0 / deadzone=21,11 / fast_pskip=0 / chroma_qp_offset=-3 / threads=12 / sliced_threads=0 / nr=0 / decimate=0 / interlaced=0 / bluray_compat=0 / constrained_intra=0 / bframes=6 / b_pyramid=2 / b_adapt=2 / b_bias=0 / direct=3 / weightb=1 / open_gop=0 / weightp=2 / keyint=250 / keyint_min=25 / scenecut=40 / intra_refresh=0 / rc_lookahead=60 / rc=2pass / mbtree=1 / bitrate=5441 / ratetol=1.0 / qcomp=0.75 / qpmin=0 / qpmax=69 / qpstep=4 / cplxblur=20.0 / qblur=0.5 / vbv_maxrate=50000 / vbv_bufsize=62500 / nal_hrd=none / ip_ratio=1.40 / aq=1:0.80
Language : Czech

Audio
ID : 3
Format : AC-3
Format/Info : Audio Coding 3
Mode extension : CM (complete main)
Codec ID : A_AC3
Duration : 1h 46mn
Bit rate mode : Constant
Bit rate : 448 Kbps
Channel(s) : 2 channels
Channel positions : Front: L R
Sampling rate : 48.0 KHz
Bit depth : 16 bits
Compression mode : Lossy
Stream size : 341 MiB (8%)
Language : Czech

Text
ID : 1
Format : UTF-8
Codec ID : S_TEXT/UTF8
Codec ID/Info : UTF-8 Plain Text
Title : english
Language : English